<?xml version="1.0" encoding="utf-8"?>
<!-- Generator: Adobe Illustrator 26.1.0, SVG Export Plug-In . SVG Version: 6.00 Build 0)  -->
<svg version="1.1" id="Layer_1" xmlns="http://www.w3.org/2000/svg" xmlns:xlink="http://www.w3.org/1999/xlink" x="0px" y="0px"
	 viewBox="0 0 1400 360" style="enable-background:new 0 0 1400 360;" xml:space="preserve">
<style type="text/css">
	.st0{fill:#043E36;}
</style>
<g>
	<path class="st0" d="M308.6,134.8C308.6,68.1,254.4,14,187.9,14C121.2,14,67.1,68.3,67.1,134.8H47.4H5v209.8h62V189.3l182.4,161.6
		l41.1-46.4l-62.9-55.7C274.7,232.3,308.6,187.5,308.6,134.8z M187.7,75.8c32.5,0,58.9,26.4,58.9,58.9s-26.4,58.9-58.9,58.9
		s-58.9-26.4-58.9-58.9S155.3,75.8,187.7,75.8z"/>
	<g>
		<path class="st0" d="M480.5,266h-27.1v78.8h-39.7v-210h81.6c40.9,0,74.9,22.7,74.9,65.6c0,39.1-29.1,55.7-47.8,61.2l55.7,83.1h-46
			L480.5,266z M453.3,228.1h42.3c18.9,0,33.8-10.2,33.8-27.7c0-16.9-13.4-27.7-33.8-27.7l-42.3-0.3V228.1z"/>
		<g>
			<path class="st0" d="M848.4,147.6c0-13,9.9-23.6,23.8-23.6c12.8,0,22.9,10.6,22.9,23.6c0,13.3-10.3,23.6-23.2,23.6
				C858.3,171.2,848.4,160.9,848.4,147.6z M852.9,190.2v154.5h37.9V190.2H852.9z"/>
			<path class="st0" d="M1052,247.3v97.4h-37.9v-91.8c0-17.8-8.5-32.4-25.1-32.4c-12.2,0-33.8,8.5-33.8,38.2v86h-37.9V190.2h37.9v18
				h0.6c9.9-14,26.3-21,41.6-21C1037.2,187.3,1052,217.4,1052,247.3z"/>
			<path class="st0" d="M1236.8,268.5c0-46.9,30.9-81.3,72.8-81.3c17.3,0,33.5,7,46.9,20.4h0.5v-82.1h37.9v219.2h-37.8v-17.5h-0.5
				c-12.2,12.5-28.6,20.4-46.9,20.4C1268,347.7,1236.8,312.6,1236.8,268.5z M1357.9,267.8c0-26.8-17.5-44.9-41.6-44.9
				c-23.3,0-40.2,19.5-40.2,45.2c0,24.2,16.9,44.1,41.6,44.1C1335.7,312.1,1357.9,297.8,1357.9,267.8z"/>
			<path class="st0" d="M684.7,297.3c-4.9,8.4-12.2,16.9-30.5,16.9c-16,0-33.8-12.2-37-33.8h111.6c0.3-19.8-3-40-13.1-57.5
				c-9.9-16.9-31.5-35.6-64.4-35.6c-40,0-75.3,29.1-75.3,80.2c0,18.7,4.6,35.8,14.6,49.5c13.7,18.7,34.7,30.7,63,30.7
				c39.4,0,59.5-20.6,69.9-43.2L684.7,297.3z M652.1,221.1c22.7,0,33.3,20.1,34.9,29.4h-70.2C618.5,240.6,629.2,221.1,652.1,221.1z"
				/>
			<path class="st0" d="M1178.2,297.3c-4.9,8.4-12.2,16.9-30.5,16.9c-16,0-33.8-12.2-37-33.8h111.6c0.3-19.8-3-40-13.1-57.5
				c-9.9-16.9-31.5-35.6-64.4-35.6c-40,0-75.1,29.1-75.1,80.2c0,18.7,4.6,35.8,14.6,49.5c13.7,18.7,34.7,30.7,63,30.7
				c39.4,0,59.5-20.6,69.9-43.2L1178.2,297.3z M1145.6,221.1c22.7,0,33.3,20.1,34.9,29.4h-70.2
				C1112.1,240.6,1122.9,221.1,1145.6,221.1z"/>
			<path class="st0" d="M796,344.7V223.2h37.4v-33H796v-10.7c0-15.5,11.1-21,22.7-21h14.6v-33h-21c-31.8,0-54.3,16-54.3,55.9v8.8
				h-26.3v33H758v0.8v120.8L796,344.7L796,344.7z"/>
		</g>
	</g>
</g>
</svg>
