<?xml version="1.0" encoding="utf-8"?>
<!-- Generator: Adobe Illustrator 16.0.0, SVG Export Plug-In . SVG Version: 6.00 Build 0)  -->
<!DOCTYPE svg PUBLIC "-//W3C//DTD SVG 1.1//EN" "http://www.w3.org/Graphics/SVG/1.1/DTD/svg11.dtd">
<svg version="1.1" id="Layer_1" xmlns="http://www.w3.org/2000/svg" xmlns:xlink="http://www.w3.org/1999/xlink" x="0px" y="0px"
	 width="370.32px" height="88.504px" viewBox="0 0 370.32 88.504" enable-background="new 0 0 370.32 88.504" xml:space="preserve">
<g>
	<defs>
		<rect id="SVGID_1_" x="-312.012" y="-261.748" width="792" height="612"/>
	</defs>
	<clipPath id="SVGID_2_">
		<use xlink:href="#SVGID_1_"  overflow="visible"/>
	</clipPath>
	<g clip-path="url(#SVGID_2_)">
		<path fill="#39242D" d="M113.669,17.084v46.754H99.733v-5.935c-2.607,3.956-7.195,6.834-13.847,6.834
			c-9.442,0-17.443-5.845-17.443-20.141V17.084h13.936V42.17c0,5.843,2.968,10.16,8.722,10.16c5.666,0,8.633-4.317,8.633-10.16
			V17.084H113.669z"/>
		<path fill="#39242D" d="M142.965,40.461c0-16.274,11.688-24.277,22.3-24.277c8.27,0,13.127,4.496,13.845,6.205h0.271v-5.305
			h13.936v46.754h-13.936v-5.304h-0.271c-0.718,1.708-5.575,6.203-13.845,6.203C154.653,64.737,142.965,56.734,142.965,40.461
			 M179.74,40.461c0-7.644-5.486-11.869-11.6-11.869c-5.936,0-11.418,4.315-11.418,11.869c0,7.553,5.482,11.868,11.418,11.868
			C174.254,52.329,179.74,48.104,179.74,40.461"/>
		<path fill="#EB7710" d="M239.702,59.605v1.612c0,1.447-1.173,2.62-2.62,2.62h-31.09c-2.338,0-4.233-1.895-4.233-4.232V3.131
			c0-1.729,1.401-3.131,3.13-3.131h1.35c5.371,0,9.726,4.354,9.726,9.727v41.075h14.934
			C235.76,50.802,239.702,54.742,239.702,59.605"/>
		<path fill="#39242D" d="M246.348,0.001h13.936v12.138h-13.936V0.001z M246.348,17.084h13.936v46.754h-13.936V17.084z"/>
		<path fill="#39242D" d="M313.955,36.325v27.513h-13.937V38.752c0-5.844-2.967-10.16-8.722-10.16c-5.663,0-8.63,4.316-8.63,10.16
			v25.086H268.73V17.084h13.937v5.934c2.606-3.955,7.191-6.834,13.847-6.834C305.953,16.184,313.955,22.029,313.955,36.325"/>
		<polygon fill="#39242D" points="341.459,46.845 336.334,52.599 336.334,63.838 322.397,63.838 322.397,0.001 336.334,0.001 
			336.334,34.796 351.799,17.084 368.433,17.084 350.089,37.404 370.32,63.838 354.946,63.838 		"/>
		<path fill="#39242D" d="M122.827,65.846c0,7.938-3.139,9.692-9.157,9.79v12.868h0.167c16.095,0,22.929-6.384,22.929-21.22v-50.2
			h-13.938V65.846z"/>
		<rect x="122.827" fill="#39242D" width="13.938" height="12.138"/>
		<path fill="#EB7710" d="M21.611,37.313c-0.196-0.373-0.485-0.666-0.819-0.912l0.013-0.002c0,0-1.871-1.633-6.17-1.601
			c-1.643,0-3.388,0.29-5.228,0.974c-9.399,3.484-9.399,12.939-9.399,18.02L0,60.519c-0.003,1.833,1.48,3.319,3.314,3.319h15.268
			c1.833,0,3.32-1.486,3.323-3.319l0.002-1.326c0.005,0,0.005-16.107,0.005-16.107v-0.296c0-1.311,0.036-2.622,0.021-3.932
			c-0.002-0.135-0.008-0.272-0.02-0.41C21.88,38.052,21.795,37.662,21.611,37.313"/>
		<path fill="#EB7710" d="M9.407,28.102c1.841,0.682,3.585,0.972,5.228,0.972c4.298,0.032,6.168-1.599,6.168-1.599l-0.01-0.002
			c0.332-0.248,0.623-0.541,0.818-0.912c0.184-0.351,0.27-0.741,0.303-1.137c0.012-0.137,0.018-0.273,0.019-0.41
			c0.015-1.309-0.021-2.621-0.021-3.931v-0.297c0,0,0-16.106-0.004-16.106l-0.002-1.328c-0.003-1.832-1.489-3.318-3.323-3.318H3.313
			C1.481,0.033-0.004,1.52,0,3.352l0.008,6.729C0.008,15.161,0.008,24.615,9.407,28.102"/>
		<path fill="#EB7710" d="M63.471,0.033H49.52c-1.393,0-2.703,0.627-3.535,1.688L25.677,27.657c-1.967,2.513-1.967,6.044,0,8.556
			L45.984,62.15c0.832,1.063,2.143,1.688,3.535,1.688h13.951c2.178,0,3.424-2.364,2.123-4.027L43.768,31.936L65.594,4.06
			C66.895,2.397,65.648,0.033,63.471,0.033"/>
		<path fill="#39242D" d="M154.352,79.856c0-1.978,0.032-4.134,0.081-5.376h-0.081c-0.506,2.141-1.879,6.274-3.039,9.819h-1.829
			c-0.866-3.022-2.287-7.712-2.794-9.852h-0.065c0.098,1.323,0.146,3.709,0.146,5.653V84.3h-1.961V72.994h3.153
			c1.03,3.153,2.223,7.141,2.565,8.741h0.033c0.262-1.356,1.716-5.653,2.794-8.741h3.038V84.3h-2.042V79.856z"/>
		<path fill="#39242D" d="M162.556,80.526c0,1.258,0.637,2.353,1.895,2.353c1.078,0,1.422-0.49,1.65-1.029h2.043
			c-0.311,1.046-1.227,2.646-3.758,2.646c-2.714,0-3.872-2.091-3.872-4.28c0-2.599,1.322-4.51,3.97-4.51
			c2.827,0,3.774,2.108,3.774,4.102c0,0.276,0,0.474-0.033,0.719H162.556z M166.216,79.235c-0.018-1.127-0.508-2.042-1.749-2.042
			s-1.748,0.849-1.862,2.042H166.216z"/>
		<path fill="#39242D" d="M178.944,82.242c0,0.784,0.065,1.846,0.114,2.058h-1.944c-0.065-0.179-0.115-0.604-0.131-0.915
			c-0.295,0.508-0.899,1.112-2.435,1.112c-2.01,0-2.858-1.324-2.858-2.615c0-1.895,1.519-2.776,3.986-2.776h1.273v-0.572
			c0-0.654-0.212-1.34-1.47-1.34c-1.111,0-1.34,0.507-1.455,1.127h-1.944c0.115-1.372,0.981-2.63,3.48-2.614
			c2.19,0.017,3.383,0.882,3.383,2.843V82.242z M176.968,80.379h-1.096c-1.486,0-2.14,0.441-2.14,1.39
			c0,0.686,0.457,1.24,1.356,1.24c1.666,0,1.879-1.143,1.879-2.385V80.379z"/>
		<path fill="#39242D" d="M183.487,78.01c0-0.719,0-1.47-0.017-2.107h1.96c0.049,0.229,0.083,0.915,0.083,1.177
			c0.293-0.589,0.98-1.373,2.499-1.373c1.65,0,2.794,1.078,2.794,3.235V84.3h-2.025v-5.13c0-1.046-0.376-1.797-1.487-1.797
			c-1.193,0-1.78,0.768-1.78,2.32V84.3h-2.026V78.01z"/>
		<path fill="#39242D" d="M195.301,72.357h2.026v1.977h-2.026V72.357z M195.301,75.902h2.026V84.3h-2.026V75.902z"/>
		<path fill="#39242D" d="M201.854,78.01c0-0.719,0-1.47-0.016-2.107h1.96c0.049,0.229,0.083,0.915,0.083,1.177
			c0.293-0.589,0.98-1.373,2.499-1.373c1.65,0,2.794,1.078,2.794,3.235V84.3h-2.025v-5.13c0-1.046-0.377-1.797-1.487-1.797
			c-1.193,0-1.78,0.768-1.78,2.32V84.3h-2.027V78.01z"/>
		<path fill="#39242D" d="M221.069,83.369c0,2.696-1.045,4.347-4.068,4.347c-2.892,0-3.562-1.618-3.659-2.631h2.059
			c0.195,0.686,0.734,1.11,1.683,1.11c1.65,0,1.993-1.013,1.993-2.761v-0.49c-0.441,0.801-1.16,1.274-2.451,1.274
			c-2.156,0-3.479-1.764-3.479-4.102c0-2.662,1.585-4.41,3.659-4.41c1.504,0,2.124,0.701,2.271,1.144
			c0.016-0.278,0.064-0.801,0.082-0.948h1.928c-0.017,0.653-0.017,1.602-0.017,2.418V83.369z M217.182,82.568
			c1.534,0,1.959-1.062,1.959-2.613c0-1.585-0.326-2.599-1.91-2.599c-1.193,0-1.993,0.947-1.993,2.68
			C215.237,81.589,216.037,82.568,217.182,82.568"/>
		<path fill="#39242D" d="M225.922,84.301v-6.847h-1.273v-1.552h1.273v-0.834c0-1.666,0.769-2.875,2.6-2.875
			c0.358,0,0.816,0.033,1.029,0.098v1.635c-0.148-0.033-0.377-0.066-0.572-0.066c-0.752,0-1.029,0.344-1.029,1.356v0.687h1.535
			v1.552h-1.535v6.847H225.922z"/>
		<path fill="#39242D" d="M240.122,81.85c0,0.817,0,1.781,0.017,2.451h-1.978c-0.031-0.229-0.049-0.702-0.065-1.063
			c-0.474,0.866-1.241,1.258-2.384,1.258c-1.618,0-2.796-0.931-2.796-3.104v-5.489h2.027v5.081c0,0.98,0.293,1.83,1.438,1.83
			c1.226,0,1.715-0.67,1.715-2.467v-4.444h2.026V81.85z"/>
		<rect x="244.632" y="72.357" fill="#39242D" width="2.026" height="11.943"/>
		<path fill="#39242D" d="M264.534,81.638c-0.31,1.404-1.291,2.858-3.677,2.858c-2.517,0-3.889-1.764-3.889-4.346
			c0-2.435,1.455-4.444,4.004-4.444c2.68,0,3.496,1.929,3.562,2.925h-1.993c-0.163-0.752-0.604-1.307-1.618-1.307
			c-1.208,0-1.878,1.045-1.878,2.761c0,1.83,0.686,2.811,1.861,2.811c0.883,0,1.374-0.507,1.618-1.258H264.534z"/>
		<path fill="#39242D" d="M276.069,80.085c0,2.5-1.47,4.411-4.101,4.411c-2.55,0-4.035-1.862-4.035-4.379
			c0-2.549,1.519-4.41,4.134-4.41C274.5,75.707,276.069,77.455,276.069,80.085 M269.991,80.102c0,1.699,0.768,2.778,2.027,2.778
			c1.273,0,1.976-1.063,1.976-2.763c0-1.813-0.702-2.794-2.01-2.794C270.743,77.323,269.991,78.271,269.991,80.102"/>
		<path fill="#39242D" d="M280.073,78.01c0-0.719,0-1.47-0.016-2.107h1.96c0.049,0.229,0.083,0.915,0.083,1.177
			c0.293-0.589,0.979-1.373,2.499-1.373c1.649,0,2.794,1.078,2.794,3.235V84.3h-2.026v-5.13c0-1.046-0.376-1.797-1.487-1.797
			c-1.192,0-1.779,0.768-1.779,2.32V84.3h-2.027V78.01z"/>
		<path fill="#39242D" d="M291.903,78.01c0-0.719,0-1.47-0.016-2.107h1.96c0.049,0.229,0.083,0.915,0.083,1.177
			c0.293-0.589,0.979-1.373,2.499-1.373c1.649,0,2.794,1.078,2.794,3.235V84.3h-2.026v-5.13c0-1.046-0.376-1.797-1.486-1.797
			c-1.193,0-1.78,0.768-1.78,2.32V84.3h-2.027V78.01z"/>
		<path fill="#39242D" d="M305.238,80.526c0,1.258,0.637,2.353,1.895,2.353c1.078,0,1.422-0.49,1.65-1.029h2.043
			c-0.31,1.046-1.226,2.646-3.758,2.646c-2.713,0-3.872-2.091-3.872-4.28c0-2.599,1.323-4.51,3.97-4.51
			c2.827,0,3.774,2.108,3.774,4.102c0,0.276,0,0.474-0.033,0.719H305.238z M308.898,79.235c-0.018-1.127-0.507-2.042-1.749-2.042
			c-1.241,0-1.748,0.849-1.862,2.042H308.898z"/>
		<path fill="#39242D" d="M322.084,81.638c-0.31,1.404-1.291,2.858-3.677,2.858c-2.517,0-3.888-1.764-3.888-4.346
			c0-2.435,1.454-4.444,4.003-4.444c2.68,0,3.497,1.929,3.562,2.925h-1.993c-0.163-0.752-0.604-1.307-1.618-1.307
			c-1.208,0-1.878,1.045-1.878,2.761c0,1.83,0.686,2.811,1.861,2.811c0.883,0,1.374-0.507,1.618-1.258H322.084z"/>
		<path fill="#39242D" d="M325.173,75.902h1.339v-2.336h2.027v2.336h1.715v1.552h-1.715v4.412c0,0.702,0.196,0.996,0.914,0.996
			c0.164,0,0.409,0,0.604-0.032v1.421c-0.425,0.147-1.013,0.164-1.47,0.164c-1.52,0-2.076-0.816-2.076-2.255v-4.706h-1.339V75.902z"
			/>
		<path fill="#39242D" d="M333.932,72.357h2.025v1.977h-2.025V72.357z M333.932,75.902h2.025V84.3h-2.025V75.902z"/>
		<path fill="#39242D" d="M348.08,80.085c0,2.5-1.471,4.411-4.1,4.411c-2.551,0-4.036-1.862-4.036-4.379
			c0-2.549,1.519-4.41,4.134-4.41C346.511,75.707,348.08,77.455,348.08,80.085 M342.002,80.102c0,1.699,0.768,2.778,2.027,2.778
			c1.273,0,1.976-1.063,1.976-2.763c0-1.813-0.702-2.794-2.01-2.794C342.753,77.323,342.002,78.271,342.002,80.102"/>
		<path fill="#39242D" d="M352.084,78.01c0-0.719,0-1.47-0.016-2.107h1.96c0.049,0.229,0.083,0.915,0.083,1.177
			c0.293-0.589,0.979-1.373,2.499-1.373c1.649,0,2.794,1.078,2.794,3.235V84.3h-2.026v-5.13c0-1.046-0.376-1.797-1.487-1.797
			c-1.192,0-1.779,0.768-1.779,2.32V84.3h-2.027V78.01z"/>
		<path fill="#39242D" d="M365.141,81.816c0.196,0.752,0.784,1.178,1.748,1.178c0.979,0,1.355-0.376,1.355-0.965
			c0-0.638-0.376-0.898-1.698-1.226c-2.631-0.637-3.089-1.454-3.089-2.614c0-1.225,0.866-2.482,3.268-2.482
			c2.419,0,3.301,1.339,3.383,2.499h-1.945c-0.081-0.393-0.358-1.046-1.519-1.046c-0.915,0-1.193,0.426-1.193,0.866
			c0,0.474,0.294,0.72,1.716,1.062c2.713,0.621,3.153,1.553,3.153,2.795c0,1.405-1.094,2.614-3.497,2.614
			c-2.433,0-3.479-1.193-3.675-2.681H365.141z"/>
	</g>
</g>
</svg>
